<svg width="184" height="33" viewBox="0 0 184 33" fill="none" xmlns="http://www.w3.org/2000/svg">
<path d="M15.8281 1.46875C15.7656 2.44792 15.7083 3.41667 15.6562 4.375C15.6042 5.33333 15.5365 6.30208 15.4531 7.28125L8.82812 7.625L8.67188 9.59375H13.3281L12.9844 14.4375L8.29688 14.5938L8.14062 16.875H12.0156H14.7656C14.7031 18.0208 14.6354 19.1615 14.5625 20.2969C14.5 21.4219 14.4427 22.5521 14.3906 23.6875L0.921875 24L1.42188 1.46875H15.8281ZM30.1094 15.0938L29.4531 22.0312L16.2969 23.0625C16.3594 19.4271 16.4271 15.8125 16.5 12.2188C16.5833 8.625 16.6823 5.01042 16.7969 1.375H24.9219C24.6823 3.65625 24.4531 5.9375 24.2344 8.21875C24.0156 10.4896 23.8594 12.7812 23.7656 15.0938C24.2552 15.1146 24.7396 15.125 25.2188 15.125C25.6979 15.125 26.1823 15.125 26.6719 15.125C27.2552 15.125 27.8281 15.1198 28.3906 15.1094C28.9531 15.099 29.526 15.0938 30.1094 15.0938ZM45.6406 1.46875C45.5781 2.44792 45.5208 3.41667 45.4688 4.375C45.4167 5.33333 45.349 6.30208 45.2656 7.28125L38.6406 7.625L38.4844 9.59375H43.1406L42.7969 14.4375L38.1094 14.5938L37.9531 16.875H41.8281H44.5781C44.5156 18.0208 44.4479 19.1615 44.375 20.2969C44.3125 21.4219 44.2552 22.5521 44.2031 23.6875L30.7344 24L31.2344 1.46875H45.6406ZM61.2031 2.03125L60.3281 8.625C60.026 8.54167 59.724 8.48438 59.4219 8.45312C59.1198 8.42188 58.8177 8.40625 58.5156 8.40625C57.7448 8.40625 57.0104 8.51042 56.3125 8.71875C55.6146 8.91667 54.9948 9.22396 54.4531 9.64062C53.9219 10.0573 53.4948 10.5781 53.1719 11.2031C52.8594 11.8281 52.7031 12.5625 52.7031 13.4062C52.7031 13.9479 52.7865 14.4167 52.9531 14.8125C53.1302 15.2083 53.375 15.5365 53.6875 15.7969C54 16.0573 54.3698 16.25 54.7969 16.375C55.224 16.5 55.6927 16.5625 56.2031 16.5625C56.5885 16.5625 56.9896 16.5208 57.4062 16.4375C57.8229 16.3542 58.2344 16.2448 58.6406 16.1094C59.0469 15.974 59.4427 15.8177 59.8281 15.6406C60.2135 15.4635 60.5677 15.2812 60.8906 15.0938L60.2656 22.4375C59.8594 22.6458 59.4167 22.8333 58.9375 23C58.4688 23.1562 57.9844 23.2969 57.4844 23.4219C56.9844 23.5365 56.4844 23.625 55.9844 23.6875C55.4844 23.75 55.0052 23.7812 54.5469 23.7812C53.224 23.7812 51.9896 23.5365 50.8438 23.0469C49.6979 22.5573 48.7031 21.8854 47.8594 21.0312C47.0156 20.1771 46.349 19.1719 45.8594 18.0156C45.3802 16.849 45.1406 15.5938 45.1406 14.25C45.1406 12.4688 45.3958 10.7917 45.9062 9.21875C46.4167 7.63542 47.1667 6.25 48.1562 5.0625C49.1458 3.875 50.3698 2.9375 51.8281 2.25C53.2969 1.5625 54.9844 1.21875 56.8906 1.21875C57.6094 1.21875 58.3438 1.27604 59.0938 1.39062C59.8542 1.50521 60.5573 1.71875 61.2031 2.03125ZM78.7031 1.65625L78.5469 8.28125L73.8906 8.46875L72.7031 23.2812L66.1094 23.625L66.1406 8.8125L61.4844 9.0625L61.6719 1.6875L78.7031 1.65625Z" fill="#40B659"/>
<path d="M98.1406 8.9375C98.1406 9.75 98.0677 10.4896 97.9219 11.1562C97.7865 11.8125 97.5677 12.4167 97.2656 12.9688C96.9635 13.5208 96.5729 14.0312 96.0938 14.5C95.6146 14.9688 95.0365 15.4167 94.3594 15.8438L98.0781 22.4688L91.0469 23.8438L88.6406 17.1875L86.7031 17.25L86.4219 23.75H79.7031C79.7552 21.375 79.8021 19.0104 79.8438 16.6562C79.8958 14.3021 79.9531 11.9375 80.0156 9.5625C80.0365 8.36458 80.0573 7.17708 80.0781 6C80.099 4.82292 80.1406 3.63542 80.2031 2.4375C80.9323 2.16667 81.651 1.94271 82.3594 1.76562C83.0677 1.58854 83.776 1.45312 84.4844 1.35938C85.2031 1.25521 85.9271 1.1875 86.6562 1.15625C87.3958 1.11458 88.151 1.09375 88.9219 1.09375C90.1094 1.09375 91.2552 1.26042 92.3594 1.59375C93.474 1.91667 94.4583 2.40625 95.3125 3.0625C96.1667 3.71875 96.849 4.53646 97.3594 5.51562C97.8802 6.49479 98.1406 7.63542 98.1406 8.9375ZM91.1406 9.4375C91.1406 9 91.0781 8.59896 90.9531 8.23438C90.8385 7.86979 90.6615 7.55729 90.4219 7.29688C90.1927 7.02604 89.901 6.81771 89.5469 6.67188C89.2031 6.51562 88.7969 6.4375 88.3281 6.4375C88.1198 6.4375 87.9167 6.45312 87.7188 6.48438C87.5208 6.50521 87.3281 6.54167 87.1406 6.59375L86.8906 12.4062H87.2656C87.7135 12.4062 88.1667 12.349 88.625 12.2344C89.0938 12.1198 89.5104 11.9427 89.875 11.7031C90.25 11.4635 90.5521 11.1562 90.7812 10.7812C91.0208 10.4062 91.1406 9.95833 91.1406 9.4375ZM118.328 12.9688C118.328 13.9167 118.219 14.8333 118 15.7188C117.781 16.5938 117.464 17.4167 117.047 18.1875C116.641 18.9583 116.141 19.6667 115.547 20.3125C114.964 20.9479 114.302 21.4948 113.562 21.9531C112.833 22.4115 112.036 22.7708 111.172 23.0312C110.307 23.2812 109.391 23.4062 108.422 23.4062C107.484 23.4062 106.589 23.2865 105.734 23.0469C104.891 22.8073 104.099 22.474 103.359 22.0469C102.62 21.6094 101.948 21.0885 101.344 20.4844C100.75 19.8698 100.24 19.1927 99.8125 18.4531C99.3958 17.7031 99.0677 16.901 98.8281 16.0469C98.599 15.1927 98.4844 14.3021 98.4844 13.375C98.4844 12.4688 98.5938 11.5833 98.8125 10.7188C99.0312 9.84375 99.3438 9.02083 99.75 8.25C100.167 7.47917 100.667 6.77083 101.25 6.125C101.833 5.47917 102.484 4.92188 103.203 4.45312C103.932 3.98438 104.719 3.61979 105.562 3.35938C106.406 3.09896 107.297 2.96875 108.234 2.96875C109.745 2.96875 111.12 3.20312 112.359 3.67188C113.609 4.14062 114.672 4.8125 115.547 5.6875C116.432 6.55208 117.115 7.60417 117.594 8.84375C118.083 10.0729 118.328 11.4479 118.328 12.9688ZM111.391 13.375C111.391 12.9271 111.323 12.4948 111.188 12.0781C111.062 11.651 110.875 11.276 110.625 10.9531C110.375 10.6198 110.062 10.3542 109.688 10.1562C109.323 9.94792 108.901 9.84375 108.422 9.84375C107.932 9.84375 107.495 9.93229 107.109 10.1094C106.724 10.2865 106.391 10.5312 106.109 10.8438C105.839 11.1458 105.63 11.5052 105.484 11.9219C105.339 12.3281 105.266 12.7604 105.266 13.2188C105.266 13.6562 105.328 14.0938 105.453 14.5312C105.578 14.9688 105.766 15.3646 106.016 15.7188C106.266 16.0729 106.573 16.3594 106.938 16.5781C107.312 16.7969 107.745 16.9062 108.234 16.9062C108.724 16.9062 109.161 16.8125 109.547 16.625C109.943 16.4271 110.276 16.1667 110.547 15.8438C110.818 15.5104 111.026 15.1302 111.172 14.7031C111.318 14.276 111.391 13.8333 111.391 13.375ZM140.672 1.59375L139.547 22.7812L131.359 23.5312L126.984 12.1875L126.297 23.75H119.266L119.828 1.59375L127.641 1.21875L133.047 12.4688L133.297 1.84375L140.672 1.59375ZM150.391 2L148.672 23.2812L142.078 23.625V2.4375L150.391 2ZM166.781 2.03125L165.906 8.625C165.604 8.54167 165.302 8.48438 165 8.45312C164.698 8.42188 164.396 8.40625 164.094 8.40625C163.323 8.40625 162.589 8.51042 161.891 8.71875C161.193 8.91667 160.573 9.22396 160.031 9.64062C159.5 10.0573 159.073 10.5781 158.75 11.2031C158.438 11.8281 158.281 12.5625 158.281 13.4062C158.281 13.9479 158.365 14.4167 158.531 14.8125C158.708 15.2083 158.953 15.5365 159.266 15.7969C159.578 16.0573 159.948 16.25 160.375 16.375C160.802 16.5 161.271 16.5625 161.781 16.5625C162.167 16.5625 162.568 16.5208 162.984 16.4375C163.401 16.3542 163.812 16.2448 164.219 16.1094C164.625 15.974 165.021 15.8177 165.406 15.6406C165.792 15.4635 166.146 15.2812 166.469 15.0938L165.844 22.4375C165.438 22.6458 164.995 22.8333 164.516 23C164.047 23.1562 163.562 23.2969 163.062 23.4219C162.562 23.5365 162.062 23.625 161.562 23.6875C161.062 23.75 160.583 23.7812 160.125 23.7812C158.802 23.7812 157.568 23.5365 156.422 23.0469C155.276 22.5573 154.281 21.8854 153.438 21.0312C152.594 20.1771 151.927 19.1719 151.438 18.0156C150.958 16.849 150.719 15.5938 150.719 14.25C150.719 12.4688 150.974 10.7917 151.484 9.21875C151.995 7.63542 152.745 6.25 153.734 5.0625C154.724 3.875 155.948 2.9375 157.406 2.25C158.875 1.5625 160.562 1.21875 162.469 1.21875C163.188 1.21875 163.922 1.27604 164.672 1.39062C165.432 1.50521 166.135 1.71875 166.781 2.03125ZM183.766 15.6875C183.766 17.1146 183.516 18.3646 183.016 19.4375C182.526 20.5 181.849 21.3854 180.984 22.0938C180.13 22.8021 179.125 23.3333 177.969 23.6875C176.823 24.0417 175.589 24.2188 174.266 24.2188C173.755 24.2188 173.193 24.151 172.578 24.0156C171.974 23.8802 171.359 23.7135 170.734 23.5156C170.109 23.3073 169.505 23.0885 168.922 22.8594C168.349 22.6198 167.839 22.3958 167.391 22.1875L168.078 15.75C168.964 16.2812 169.943 16.6875 171.016 16.9688C172.099 17.2396 173.161 17.375 174.203 17.375C174.401 17.375 174.641 17.3698 174.922 17.3594C175.203 17.3385 175.469 17.2917 175.719 17.2188C175.979 17.1354 176.198 17.0156 176.375 16.8594C176.552 16.7031 176.641 16.4792 176.641 16.1875C176.641 15.9896 176.578 15.8229 176.453 15.6875C176.328 15.5417 176.167 15.4271 175.969 15.3438C175.771 15.25 175.547 15.1823 175.297 15.1406C175.047 15.0885 174.802 15.0521 174.562 15.0312C174.323 15.0104 174.099 15 173.891 15C173.682 15 173.516 15 173.391 15C172.495 15 171.677 14.8438 170.938 14.5312C170.208 14.2188 169.578 13.7865 169.047 13.2344C168.526 12.6719 168.12 12.0104 167.828 11.25C167.536 10.4792 167.391 9.64583 167.391 8.75C167.391 7.52083 167.635 6.42188 168.125 5.45312C168.625 4.47396 169.286 3.64583 170.109 2.96875C170.943 2.28125 171.896 1.75521 172.969 1.39062C174.042 1.02604 175.151 0.84375 176.297 0.84375C176.807 0.84375 177.333 0.864583 177.875 0.90625C178.417 0.9375 178.953 1 179.484 1.09375C180.026 1.1875 180.552 1.30729 181.062 1.45312C181.573 1.59896 182.057 1.78125 182.516 2L181.922 8.34375C181.214 8.10417 180.469 7.90625 179.688 7.75C178.917 7.58333 178.161 7.5 177.422 7.5C177.286 7.5 177.109 7.50521 176.891 7.51562C176.682 7.51562 176.458 7.53125 176.219 7.5625C175.99 7.58333 175.755 7.61979 175.516 7.67188C175.276 7.72396 175.062 7.79688 174.875 7.89062C174.688 7.97396 174.536 8.08854 174.422 8.23438C174.307 8.38021 174.255 8.55208 174.266 8.75C174.276 8.97917 174.359 9.16667 174.516 9.3125C174.682 9.44792 174.891 9.55729 175.141 9.64062C175.401 9.71354 175.682 9.76562 175.984 9.79688C176.297 9.82812 176.604 9.84896 176.906 9.85938C177.208 9.85938 177.49 9.85938 177.75 9.85938C178.01 9.84896 178.224 9.85417 178.391 9.875C179.224 9.92708 179.974 10.1042 180.641 10.4062C181.307 10.7083 181.87 11.1094 182.328 11.6094C182.797 12.1094 183.151 12.7083 183.391 13.4062C183.641 14.0938 183.766 14.8542 183.766 15.6875Z" fill="#F6861F"/>
</svg>
