<svg width="15" height="23" viewBox="0 0 15 23" fill="none" xmlns="http://www.w3.org/2000/svg">
<g clip-path="url(#clip0_58_5)">
<path d="M6.61719 18.3828C7.10547 18.8711 7.89844 18.8711 8.38672 18.3828L14.6367 12.1328C15.125 11.6445 15.125 10.8516 14.6367 10.3633C14.1484 9.875 13.3555 9.875 12.8672 10.3633L8.75 14.4844V2.5C8.75 1.80859 8.19141 1.25 7.5 1.25C6.80859 1.25 6.25 1.80859 6.25 2.5V14.4805L2.13281 10.3672C1.64453 9.87891 0.851563 9.87891 0.363281 10.3672C-0.125 10.8555 -0.125 11.6484 0.363281 12.1367L6.61328 18.3867L6.61719 18.3828Z" fill="#1B1818"/>
</g>
<line y1="21.5" x2="15" y2="21.5" stroke="#1B1818" stroke-width="3"/>
<defs>
<clipPath id="clip0_58_5">
<rect width="15" height="20" fill="white"/>
</clipPath>
</defs>
</svg>
