<svg width="30" height="30" viewBox="0 0 30 30" fill="none" xmlns="http://www.w3.org/2000/svg">
<path opacity="0.6" d="M15 2.8125C18.2323 2.8125 21.3323 4.09654 23.6179 6.38214C25.9035 8.66774 27.1875 11.7677 27.1875 15C27.1875 18.2323 25.9035 21.3323 23.6179 23.6179C21.3323 25.9035 18.2323 27.1875 15 27.1875C11.7677 27.1875 8.66774 25.9035 6.38214 23.6179C4.09654 21.3323 2.8125 18.2323 2.8125 15C2.8125 11.7677 4.09654 8.66774 6.38214 6.38214C8.66774 4.09654 11.7677 2.8125 15 2.8125ZM15 30C18.9782 30 22.7936 28.4196 25.6066 25.6066C28.4196 22.7936 30 18.9782 30 15C30 11.0218 28.4196 7.20644 25.6066 4.3934C22.7936 1.58035 18.9782 0 15 0C11.0218 0 7.20644 1.58035 4.3934 4.3934C1.58035 7.20644 0 11.0218 0 15C0 18.9782 1.58035 22.7936 4.3934 25.6066C7.20644 28.4196 11.0218 30 15 30ZM10.2539 10.2539C9.70312 10.8047 9.70312 11.6953 10.2539 12.2402L13.0078 14.9941L10.2539 17.748C9.70312 18.2988 9.70312 19.1895 10.2539 19.7344C10.8047 20.2793 11.6953 20.2852 12.2402 19.7344L14.9941 16.9805L17.748 19.7344C18.2988 20.2852 19.1895 20.2852 19.7344 19.7344C20.2793 19.1836 20.2852 18.293 19.7344 17.748L16.9805 14.9941L19.7344 12.2402C20.2852 11.6895 20.2852 10.7988 19.7344 10.2539C19.1836 9.70898 18.293 9.70312 17.748 10.2539L14.9941 13.0078L12.2402 10.2539C11.6895 9.70312 10.7988 9.70312 10.2539 10.2539Z" fill="#808080"/>
</svg>
